HIERARCHY
ROOT hip
{
  OFFSET 0 0 0
  CHANNELS 6 Xposition Yposition Zposition Zrotation Yrotation Xrotation
  JOINT abdomen
  {
    OFFSET 0 20.6881 -0.73152
    CHANNELS 3 Zrotation Xrotation Yrotation
    JOINT chest
    {
      OFFSET 0 11.7043 -0.48768
      CHANNELS 3 Zrotation Xrotation Yrotation
      JOINT neck
      {
        OFFSET 0 22.1894 -2.19456
        CHANNELS 3 Zrotation Xrotation Yrotation
        JOINT head
        {
          OFFSET -0.24384 7.07133 1.2192
          CHANNELS 3 Zrotation Xrotation Yrotation
          JOINT leftEye
          {
            OFFSET 4.14528 8.04674 8.04672
            CHANNELS 3 Zrotation Xrotation Yrotation
            End Site
            {
              OFFSET 1 0 0
            }
          }
          JOINT rightEye
          {
            OFFSET -3.6576 8.04674 8.04672
            CHANNELS 3 Zrotation Xrotation Yrotation
            End Site
            {
              OFFSET 1 0 0
            }
          }
        }
      }
      JOINT rCollar
      {
        OFFSET -2.68224 19.2634 -4.8768
        CHANNELS 3 Zrotation Xrotation Yrotation
        JOINT rShldr
        {
          OFFSET -8.77824 -1.95073 1.46304
          CHANNELS 3 Zrotation Xrotation Yrotation
          JOINT rForeArm
          {
            OFFSET -28.1742 -1.7115 0.48768
            CHANNELS 3 Zrotation Xrotation Yrotation
            JOINT rHand
            {
              OFFSET -22.5879 0.773209 7.07136
              CHANNELS 3 Zrotation Xrotation Yrotation
              JOINT rThumb1
              {
                OFFSET -1.2192 -0.487915 3.41376
                CHANNELS 3 Zrotation Xrotation Yrotation
                JOINT rThumb2
                {
                  OFFSET -3.37035 -0.52449 3.41376
                  CHANNELS 3 Zrotation Xrotation Yrotation
                  End Site
                  {
                    OFFSET -1.78271 -1.18214 1.43049
                  }
                }
              }
              JOINT rIndex1
              {
                OFFSET -7.75947 0.938293 5.60832
                CHANNELS 3 Zrotation Xrotation Yrotation
                JOINT rIndex2
                {
                  OFFSET -2.54057 -0.884171 1.56538
                  CHANNELS 3 Zrotation Xrotation Yrotation
                  End Site
                  {
                    OFFSET -1.62519 -0.234802 1.16502
                  }
                }
              }
              JOINT rMid1
              {
                OFFSET -8.24714 1.18213 3.41376
                CHANNELS 3 Zrotation Xrotation Yrotation
                JOINT rMid2
                {
                  OFFSET -3.10165 -0.590103 1.0647
                  CHANNELS 3 Zrotation Xrotation Yrotation
                  End Site
                  {
                    OFFSET -2.48547 -0.328903 0.83742
                  }
                }
              }
              JOINT rRing1
              {
                OFFSET -8.82822 0.546677 1.51678
                CHANNELS 3 Zrotation Xrotation Yrotation
                JOINT rRing2
                {
                  OFFSET -2.60934 -0.819778 -0.0198488
                  CHANNELS 3 Zrotation Xrotation Yrotation
                  End Site
                  {
                    OFFSET -2.33842 -0.294052 0.168128
                  }
                }
              }
              JOINT rPinky1
              {
                OFFSET -8.27202 -0.0477905 -0.4584
                CHANNELS 3 Zrotation Xrotation Yrotation
                JOINT rPinky2
                {
                  OFFSET -1.82734 -0.647385 -0.700984
                  CHANNELS 3 Zrotation Xrotation Yrotation
                  End Site
                  {
                    OFFSET -1.69225 -0.51767 -0.607171
                  }
                }
              }
            }
          }
        }
      }
      JOINT lCollar
      {
        OFFSET 2.68224 19.2634 -4.8768
        CHANNELS 3 Zrotation Xrotation Yrotation
        JOINT lShldr
        {
          OFFSET 8.77824 -1.95073 1.46304
          CHANNELS 3 Zrotation Xrotation Yrotation
          JOINT lForeArm
          {
            OFFSET 28.1742 -1.7115 0.48768
            CHANNELS 3 Zrotation Xrotation Yrotation
            JOINT lHand
            {
              OFFSET 22.5879 0.773209 7.07136
              CHANNELS 3 Zrotation Xrotation Yrotation
              JOINT lThumb1
              {
                OFFSET 1.2192 -0.487915 3.41376
                CHANNELS 3 Zrotation Xrotation Yrotation
                JOINT lThumb2
                {
                  OFFSET 3.37035 -0.52449 3.41376
                  CHANNELS 3 Zrotation Xrotation Yrotation
                  End Site
                  {
                    OFFSET 1.78271 -1.18214 1.43049
                  }
                }
              }
              JOINT lIndex1
              {
                OFFSET 7.75947 0.938293 5.60832
                CHANNELS 3 Zrotation Xrotation Yrotation
                JOINT lIndex2
                {
                  OFFSET 2.54057 -0.884171 1.56538
                  CHANNELS 3 Zrotation Xrotation Yrotation
                  End Site
                  {
                    OFFSET 1.62519 -0.234802 1.16502
                  }
                }
              }
              JOINT lMid1
              {
                OFFSET 8.24714 1.18213 3.41376
                CHANNELS 3 Zrotation Xrotation Yrotation
                JOINT lMid2
                {
                  OFFSET 3.10165 -0.590103 1.0647
                  CHANNELS 3 Zrotation Xrotation Yrotation
                  End Site
                  {
                    OFFSET 2.48547 -0.328903 0.83742
                  }
                }
              }
              JOINT lRing1
              {
                OFFSET 8.82822 0.546677 1.51678
                CHANNELS 3 Zrotation Xrotation Yrotation
                JOINT lRing2
                {
                  OFFSET 2.60934 -0.819778 -0.0198488
                  CHANNELS 3 Zrotation Xrotation Yrotation
                  End Site
                  {
                    OFFSET 2.33842 -0.294052 0.168128
                  }
                }
              }
              JOINT lPinky1
              {
                OFFSET 8.27202 -0.0477905 -0.4584
                CHANNELS 3 Zrotation Xrotation Yrotation
                JOINT lPinky2
                {
                  OFFSET 1.82734 -0.647385 -0.700984
                  CHANNELS 3 Zrotation Xrotation Yrotation
                  End Site
                  {
                    OFFSET 1.69225 -0.51767 -0.607171
                  }
                }
              }
            }
          }
        }
      }
    }
  }
  JOINT rButtock
  {
    OFFSET -8.77824 4.35084 1.2192
    CHANNELS 3 Zrotation Xrotation Yrotation
    JOINT rThigh
    {
      OFFSET 0 -1.70687 -2.19456
      CHANNELS 3 Zrotation Xrotation Yrotation
      JOINT rShin
      {
        OFFSET 0 -36.8199 0.73152
        CHANNELS 3 Zrotation Xrotation Yrotation
        JOINT rFoot
        {
          OFFSET 0.73152 -45.1104 -5.12064
          CHANNELS 3 Zrotation Xrotation Yrotation
          End Site
          {
            OFFSET -1.1221 -3.69964 12.103
          }
        }
      }
    }
  }
  JOINT lButtock
  {
    OFFSET 8.77824 4.35084 1.2192
    CHANNELS 3 Zrotation Xrotation Yrotation
    JOINT lThigh
    {
      OFFSET 0 -1.70687 -2.19456
      CHANNELS 3 Zrotation Xrotation Yrotation
      JOINT lShin
      {
        OFFSET 0 -36.8199 0.73152
        CHANNELS 3 Zrotation Xrotation Yrotation
        JOINT lFoot
        {
          OFFSET -0.73152 -45.1104 -5.12064
          CHANNELS 3 Zrotation Xrotation Yrotation
          End Site
          {
            OFFSET 1.1221 -3.69964 12.103
          }
        }
      }
    }
  }
}
MOTION
Frames:	7
Frame Time:	0.00833333
20.6085 75.513 -19.4135 -2.37 -37.1444 22.2096 -2.66083 37.4506 1.55194 2.93507 -4.97988 0.300994 -10.7668 -0.199997 -3.62952 10.6108 0.965538 -4.28916 -0.0 0.0 0.0 -0.0 0.0 0.0 6.90239e-13 -2.44885e-13 -7.05984e-13 56.696 36.2606 25.5864 -26.8905 -25.9788 60.8467 -0.518891 20.0325 2.93729 4.1784e-09 -6.31937e-09 -4.87061e-10 7.22353e-09 -1.08909e-08 -9.12628e-10 4.1784e-09 -6.31937e-09 -4.8708e-10 7.73091 5.47488 0.417314 4.17839e-09 -6.31937e-09 -4.8707e-10 2.90554 0.965183 0.102902 4.1784e-09 -6.31937e-09 -4.87062e-10 10.2786 0.731801 0.0259123 4.1784e-09 -6.31937e-09 -4.87054e-10 2.22167 -0.733487 -0.20892 6.90118e-13 -2.44921e-13 -7.06282e-13 -50.5798 46.8469 -30.1529 25.3516 -21.8719 -54.2246 0.235268 -13.6828 1.96078 -3.91161e-10 5.1178e-09 5.08449e-09 -7.29877e-10 8.84787e-09 8.78906e-09 -3.91161e-10 5.1178e-09 5.0845e-09 -7.73091 5.47488 -0.417314 -3.91161e-10 5.1178e-09 5.0845e-09 -2.90554 0.965183 -0.102902 -3.91166e-10 5.1178e-09 5.0845e-09 -10.2786 0.731801 -0.0259123 -3.91154e-10 5.1178e-09 5.08449e-09 -2.22167 -0.733487 0.20892 -2.03217e-16 0.0 -3.88251e-19 -16.6706 -61.9514 -13.0194 -0.441086 44.5226 0.862543 -3.69284 -9.9157 -12.0887 2.03217e-16 0.0 3.88251e-19 12.2909 -61.7877 14.9895 0.438024 47.2455 -1.14983 0.308354 -1.5371 0.461194
20.8095 75.5006 -19.4534 -2.2943 -37.2716 21.8969 -2.88407 37.1738 1.60409 2.87592 -4.92569 0.296251 -10.731 -0.15762 -3.59738 10.4385 0.925003 -4.24147 -0.0 0.0 0.0 -0.0 0.0 0.0 9.24523e-13 -2.66206e-13 -9.09638e-13 57.0038 35.4169 26.1333 -26.8107 -25.7237 60.4241 -0.449824 18.7588 2.73518 3.1383e-09 -5.19649e-09 5.10263e-11 5.43388e-09 -8.96703e-09 2.92198e-11 3.1383e-09 -5.19648e-09 5.10099e-11 7.73091 5.47488 0.417314 3.13829e-09 -5.19648e-09 5.10193e-11 2.90554 0.965183 0.102902 3.1383e-09 -5.19648e-09 5.10265e-11 10.2786 0.731801 0.0259123 3.1383e-09 -5.19648e-09 5.10336e-11 2.22167 -0.733487 -0.20892 9.24417e-13 -2.66239e-13 -9.09924e-13 -50.3323 46.0196 -30.862 25.1968 -21.5267 -53.6327 0.327138 -15.886 2.29309 -1.09525e-09 6.14112e-09 6.50899e-09 -1.96465e-09 1.06122e-08 1.12463e-08 -1.09525e-09 6.14112e-09 6.509e-09 -7.73091 5.47488 -0.417314 -1.09525e-09 6.14112e-09 6.509e-09 -2.90554 0.965183 -0.102902 -1.09526e-09 6.14112e-09 6.509e-09 -10.2786 0.731801 -0.0259123 -1.09525e-09 6.14112e-09 6.50899e-09 -2.22167 -0.733487 0.20892 -2.03217e-16 0.0 -3.88251e-19 -16.8287 -61.5531 -13.4046 -0.469638 45.5595 0.889279 -3.64184 -9.87038 -11.9186 2.03217e-16 0.0 3.88251e-19 12.0546 -61.3236 14.881 0.435869 47.176 -1.14362 0.320206 -1.45977 0.578928
20.9242 75.5707 -19.3903 -2.4397 -37.659 21.4408 -3.09798 36.8535 1.52773 2.90137 -4.84367 0.261675 -10.8183 -0.109311 -3.52207 10.272 0.85425 -4.07446 -0.0 0.0 0.0 -0.0 0.0 0.0 1.09515e-12 -2.64372e-13 -1.05543e-12 57.0445 34.7455 26.899 -26.704 -25.3936 59.8922 -0.381181 17.3506 2.51572 1.05487e-09 -2.70397e-09 9.70063e-10 1.84448e-09 -4.68882e-09 1.64483e-09 1.05488e-09 -2.70396e-09 9.70052e-10 7.73091 5.47488 0.417314 1.05487e-09 -2.70396e-09 9.70061e-10 2.90554 0.965183 0.102902 1.05488e-09 -2.70396e-09 9.70066e-10 10.2786 0.731801 0.0259123 1.05487e-09 -2.70396e-09 9.70072e-10 2.22167 -0.733487 -0.20892 1.09505e-12 -2.64395e-13 -1.0557e-12 -50.3125 45.0114 -31.4785 24.997 -21.0916 -52.9098 0.411641 -17.8004 2.58718 -1.42352e-09 6.36139e-09 7.25701e-09 -2.55059e-09 1.09855e-08 1.25323e-08 -1.42353e-09 6.3614e-09 7.25702e-09 -7.73091 5.47488 -0.417314 -1.42352e-09 6.3614e-09 7.25701e-09 -2.90554 0.965183 -0.102902 -1.42353e-09 6.3614e-09 7.25701e-09 -10.2786 0.731801 -0.0259123 -1.42352e-09 6.36139e-09 7.257e-09 -2.22167 -0.733487 0.20892 -2.03217e-16 0.0 -3.88251e-19 -16.8854 -61.1588 -13.6024 -0.502717 46.6813 0.912522 -3.41036 -9.67492 -11.2237 2.03217e-16 0.0 3.88251e-19 11.8701 -60.8502 14.8103 0.433132 47.0841 -1.13612 0.328752 -1.37338 0.680586
21.0573 75.5856 -19.4303 -2.5161 -37.8529 21.0669 -3.28342 36.5049 1.39004 2.9542 -4.76155 0.215257 -10.9215 -0.0614847 -3.43508 10.0946 0.740271 -3.87635 -0.0 0.0 0.0 -0.0 0.0 0.0 1.19212e-12 -2.50413e-13 -1.1386e-12 56.9602 34.1734 27.7616 -26.5849 -25.0379 59.3318 -0.31946 15.918 2.29652 -9.19376e-10 -4.3943e-10 1.78233e-09 -1.55771e-09 -8.03971e-10 3.07641e-09 -9.19371e-10 -4.39428e-10 1.78233e-09 7.73091 5.47488 0.417314 -9.19376e-10 -4.39426e-10 1.78233e-09 2.90554 0.965183 0.102902 -9.19366e-10 -4.39427e-10 1.78234e-09 10.2786 0.731801 0.0259123 -9.19381e-10 -4.39426e-10 1.78234e-09 2.22167 -0.733487 -0.20892 1.19204e-12 -2.50425e-13 -1.13886e-12 -50.3337 43.9793 -32.1015 24.7749 -20.6223 -52.1476 0.495304 -19.5595 2.86246 -1.49801e-09 6.24648e-09 7.65221e-09 -2.69837e-09 1.07784e-08 1.32096e-08 -1.49801e-09 6.24648e-09 7.65222e-09 -7.73091 5.47488 -0.417314 -1.49801e-09 6.24648e-09 7.65221e-09 -2.90554 0.965183 -0.102902 -1.49801e-09 6.24648e-09 7.65221e-09 -10.2786 0.731801 -0.0259123 -1.49801e-09 6.24648e-09 7.6522e-09 -2.22167 -0.733487 0.20892 -2.03217e-16 0.0 -3.88251e-19 -16.9202 -60.7705 -13.7661 -0.539667 47.8678 0.93663 -3.12622 -9.43368 -10.354 2.03217e-16 0.0 3.88251e-19 11.6956 -60.406 14.7296 0.429822 46.9659 -1.12603 0.334621 -1.27152 0.765566
21.1946 75.6138 -19.4488 -2.499 -38.0237 20.6017 -3.41944 36.1438 1.25709 2.97707 -4.70703 0.174971 -10.9334 -0.0205638 -3.3679 9.88919 0.570096 -3.73537 -0.0 0.0 0.0 -0.0 0.0 0.0 1.20546e-12 -2.35361e-13 -1.15439e-12 56.8908 33.6311 28.6031 -26.472 -24.7113 58.82 -0.267702 14.5714 2.09366 -1.63194e-09 -5.0013e-13 2.00011e-09 -2.78576e-09 -6.02047e-11 3.46615e-09 -1.63194e-09 -4.98552e-13 2.00011e-09 7.73091 5.47488 0.417314 -1.63194e-09 -4.96564e-13 2.00012e-09 2.90554 0.965183 0.102902 -1.63193e-09 -4.96962e-13 2.00012e-09 10.2786 0.731801 0.0259123 -1.63195e-09 -4.96564e-13 2.00013e-09 2.22167 -0.733487 -0.20892 1.20538e-12 -2.35361e-13 -1.15464e-12 -50.2084 43.0761 -32.824 24.5603 -20.1827 -51.434 0.590612 -21.2965 3.14051 -1.44073e-09 6.26424e-09 8.01824e-09 -2.61862e-09 1.08013e-08 1.38407e-08 -1.44074e-09 6.26425e-09 8.01826e-09 -7.73091 5.47488 -0.417314 -1.44073e-09 6.26425e-09 8.01825e-09 -2.90554 0.965183 -0.102902 -1.44074e-09 6.26425e-09 8.01825e-09 -10.2786 0.731801 -0.0259123 -1.44073e-09 6.26425e-09 8.01824e-09 -2.22167 -0.733487 0.20892 -2.03217e-16 0.0 -3.88251e-19 -17.0039 -60.3895 -14.0413 -0.580315 49.0991 0.966302 -2.90757 -9.25561 -9.65781 2.03217e-16 0.0 3.88251e-19 11.492 -60.0291 14.5928 0.425978 46.8173 -1.11205 0.338435 -1.14782 0.833266
21.3242 75.673 -19.4355 -2.4752 -38.2053 20.082 -3.48078 35.7572 1.14153 2.94549 -4.69863 0.146953 -10.7796 0.0104531 -3.33112 9.61535 0.324157 -3.6901 -0.0 0.0 0.0 -0.0 0.0 0.0 1.09726e-12 -2.32757e-13 -1.08815e-12 56.8552 33.0826 29.4003 -26.3697 -24.4228 58.3583 -0.220085 13.2591 1.89786 -2.28661e-10 -2.74666e-09 1.26741e-09 -3.6693e-10 -4.80017e-09 2.18991e-09 -2.28659e-10 -2.74665e-09 1.26741e-09 7.73091 5.47488 0.417314 -2.28662e-10 -2.74665e-09 1.26742e-09 2.90554 0.965183 0.102902 -2.28654e-10 -2.74665e-09 1.26742e-09 10.2786 0.731801 0.0259123 -2.28668e-10 -2.74665e-09 1.26742e-09 2.22167 -0.733487 -0.20892 1.09719e-12 -2.32747e-13 -1.08839e-12 -49.8159 42.3698 -33.7314 24.358 -19.7819 -50.7624 0.698303 -23.0088 3.4219 -1.12107e-09 6.65737e-09 8.53994e-09 -2.0914e-09 1.14734e-08 1.47491e-08 -1.12108e-09 6.65738e-09 8.53995e-09 -7.73091 5.47488 -0.417314 -1.12107e-09 6.65737e-09 8.53994e-09 -2.90554 0.965183 -0.102902 -1.12108e-09 6.65737e-09 8.53994e-09 -10.2786 0.731801 -0.0259123 -1.12107e-09 6.65738e-09 8.53993e-09 -2.22167 -0.733487 0.20892 -2.03217e-16 0.0 -3.88251e-19 -17.1937 -60.0578 -14.5139 -0.627145 50.4161 1.0041 -2.7558 -9.1413 -9.15765 2.03217e-16 0.0 3.88251e-19 11.2592 -59.7773 14.3956 0.42216 46.6477 -1.09438 0.338341 -1.00094 0.864632
21.4695 75.7044 -19.5526 -2.5329 -38.1913 19.7934 -3.4862 35.3424 1.01039 2.89303 -4.71786 0.121164 -10.5324 0.0354161 -3.30722 9.29378 0.0147685 -3.68856 -0.0 0.0 0.0 -0.0 0.0 0.0 8.84599e-13 -2.33186e-13 -9.46886e-13 56.7818 32.5694 30.2141 -26.2694 -24.1465 57.9105 -0.176366 11.9493 1.70416 2.49352e-09 -7.51469e-09 -8.03455e-11 4.32477e-09 -1.30218e-08 -1.63013e-10 2.49352e-09 -7.51468e-09 -8.03537e-11 7.73091 5.47488 0.417314 2.49352e-09 -7.51468e-09 -8.03417e-11 2.90554 0.965183 0.102902 2.49353e-09 -7.51468e-09 -8.03405e-11 10.2786 0.731801 0.0259123 2.49351e-09 -7.51468e-09 -8.03347e-11 2.22167 -0.733487 -0.20892 8.84531e-13 -2.33163e-13 -9.471e-13 -49.2778 41.7633 -34.7503 24.1545 -19.3897 -50.0948 0.809165 -24.638 3.69633 -5.28332e-10 7.13703e-09 9.01183e-09 -1.0964e-09 1.22947e-08 1.55769e-08 -5.28342e-10 7.13703e-09 9.01184e-09 -7.73091 5.47488 -0.417314 -5.28332e-10 7.13703e-09 9.01183e-09 -2.90554 0.965183 -0.102902 -5.28334e-10 7.13703e-09 9.01183e-09 -10.2786 0.731801 -0.0259123 -5.28329e-10 7.13703e-09 9.01182e-09 -2.22167 -0.733487 0.20892 -2.03217e-16 0.0 -3.88251e-19 -17.4355 -59.7592 -15.0871 -0.680709 51.8141 1.04832 -2.61655 -9.04276 -8.69094 2.03217e-16 0.0 3.88251e-19 11.0145 -59.6139 14.159 0.418278 46.4558 -1.07362 0.334925 -0.834156 0.866291
